<svg xmlns="http://www.w3.org/2000/svg" width="108" height="40" fill="none" viewBox="0 0 108 40"><path fill="#210F30" d="M2.895 37.787c.65.25 1.35.37 2.05.37h.02c1.121 0 2.227-.312 3.111-.909-.193.827-.084 1.706.509 2.059.87.52 1.5-.45 2.04-1.83.47-1.21 1.16-3.18 1.04-3.41-.12-.23-2.15-.56-3.63-.58-1.48-.02-2.68.14-2.55 1.14.091.726 1.043 1.234 1.996 1.386-1.081.826-2.712 1.04-4.096.514-.65-.25-1.77-.87-1.99-2.27-.35-2.18 1.54-3.44 3.45-3.9 2.29-.56 5.02-.08 6.25.25l.32-2.96c-1.79-.11-3.97.03-6.93.96-2.92.91-4.84 3.27-4.43 5.86.24 1.52 1.27 2.72 2.84 3.32Z"/><path fill="#DE3226" d="M6.845 8.308c-2.1 2.1-3.62 5.66-3.34 8.75.41 4.52 2.2 7.2 4.06 9.86 1.52 2.17 12.269 12.709 12.489 13.019.09.13.3.02.3.02 3.83-2.87 14.15-5.78 19.029-9.84 1.72-1.43 3.16-3.25 3.88-5.01 1.2-2.95 1.12-6.05-.03-8.96-1.08-2.829-3.12-5.089-5.69-6.309-2.56-1.29-5.57-1.22-8.94.19-.91.37-1.76.76-2.52 1.19-.32.2-.64.39-.91.59-.05.03-.09-.01-.09-.01-.74-1.1-1.58-2.12-2.51-3.03-2.64-2.72-5.389-3.83-8.209-3.72-2.8.07-5.49 1.13-7.5 3.28"/><path fill="#210F30" d="M14.524 1.679c-.02 1.01.06 2.27.83 3.4l.01.01s-1.78.75-4.61.76c-.24-2.77 1.48-4.82 2.75-5.61 1.107-.688 1.067.247 1.032 1.081-.005.124-.01.245-.012.359ZM39.013 6.868c-.4.93-.98 2.05-2.15 2.77 0 0 1.32 1.41 3.9 2.57 1.35-2.43.61-5-.23-6.24-.74-1.092-1.092-.19-1.398.595-.041.105-.082.21-.122.305Z"/><path fill="#FFC969" d="M13.334 15.118c0-.51.4-.94.91-.97.74-.04 1.59-.1 2.09-.15.78-.07 2.15-.14 2.96-.14.3 0 .61.01.92.03.32.02.64.06.96.13.32.06.62.16.9.29.28.13.55.29.79.49.48.41.82.9 1.02 1.47.2.57.3 1.16.3 1.76 0 .69-.18 1.34-.53 1.93-.17.28-.37.52-.62.73-.3.25-.26.73.1.89.51.24.93.57 1.25 1.02.52.72.76 1.62.73 2.68 0 .72-.14 1.4-.43 2.02-.28.62-.69 1.14-1.21 1.55-.52.41-1.18.68-1.97.81s-1.73.16-2.82.09c-.41-.03-1.39-.06-1.78-.09-.39-.03-1.03-.04-1.43-.04-.27 0-1.12 0-1.38.01-.26 0-.52.02-.78.03v-14.54h.02Zm3.32 4.47c0 .57.28.87.64.88.47.02 1.04.04 1.41.03.44 0 .99-.08 1.25-.22.59-.31.79-.76.85-1.65.03-.46-.11-.81-.24-1.08s-.41-.45-.65-.55c-.32-.13-.71-.19-1.41-.18-.24 0-.75.04-1.25.11a.67.67 0 0 0-.58.67v2l-.02-.01Zm0 6.55c0 .36.28.65.63.67 1.17.07 2.54.13 3.04-.16.59-.35.9-.9.94-1.7.02-.54-.1-.93-.26-1.23-.16-.3-.41-.52-.68-.67-.28-.15-.61-.23-.99-.24-.28-.01-1.31 0-2.03.02-.36.01-.65.31-.65.67v2.64ZM26.814 14.878c0-.37.3-.68.68-.68h8.05c.37 0 .679.3.679.68v1.56c0 .37-.3.68-.68.68h-4.65c-.37 0-.68.3-.68.68v2.03c0 .37.3.68.68.68h4.48c.37 0 .68.3.68.68v1.41c0 .37-.3.68-.68.68h-4.48c-.37 0-.68.3-.68.68v2.03c0 .37.3.68.68.68h4.65c.37 0 .68.3.68.68v1.66c0 .37-.3.68-.68.68h-8.05a.68.68 0 0 1-.68-.68v-14.13Z"/><path fill="#210F30" d="M54.213 17.804c-.03.261-.403.338-.568.133-.603-.755-1.205-.862-1.593-.862-1.999.064-2.828 2.977-2.786 5.168 0 2.211.638 4.635 2.382 4.848.256.027.607-.008.991-.156.603-.232 1.594.119 1.61.765l.026 1.153a.624.624 0 0 1-.354.589c-.853.39-1.682.52-2.315.52-3.935.021-5.806-3.317-5.87-7.953-.085-4.253 1.638-8.23 6.231-8.209.77 0 1.64.2 2.33.7.174.125.25.34.226.553l-.31 2.75Z"/><path fill="#210F30" fill-rule="evenodd" d="M66.865 21.881c0 3.913-1.361 8.102-5.912 8.08-4.572.022-5.912-4.167-5.955-8.08 0-3.87 1.447-8.102 5.955-8.08 4.487-.022 5.933 4.21 5.912 8.08Zm-3.552.043c0-2.106-.425-4.828-2.36-4.955-1.957.127-2.382 2.85-2.382 4.954 0 2.127.425 5.19 2.382 5.274 1.935-.085 2.36-3.147 2.36-5.273ZM76.752 29.386c-.722.371-1.586.58-2.612.576-4.572.021-5.912-4.168-5.954-8.081 0-3.87 1.446-8.102 5.954-8.08 4.487-.022 5.933 4.21 5.912 8.08 0 1.832-.299 3.725-1.083 5.218l1.205 1.205c.26.26.26.682 0 .943l-1.309 1.308a.667.667 0 0 1-.943 0l-1.17-1.17ZM74.14 16.969c1.935.127 2.36 2.85 2.36 4.954 0 .77-.055 1.66-.218 2.49l-.529-.53a.667.667 0 0 0-.942 0l-1.31 1.309a.667.667 0 0 0 0 .943l1.007 1.006c-.116.032-.239.05-.368.056-1.957-.085-2.382-3.147-2.382-5.273 0-2.106.425-4.828 2.382-4.955Z" clip-rule="evenodd"/><path fill="#210F30" d="M91.225 25.411c0 3.147-1.744 4.55-4.891 4.55-3.105 0-4.891-1.403-4.891-4.55v-10.54c0-.368.298-.667.667-.667h2.069c.368 0 .666.299.666.667V25.22c.022 1.042.085 1.871 1.489 1.871 1.403 0 1.467-.83 1.489-1.871V14.87c0-.367.298-.666.666-.666h2.07c.368 0 .666.299.666.667v10.54ZM92.99 28.997c0 .369.3.667.668.667h2.133a.667.667 0 0 0 .666-.667V14.871a.667.667 0 0 0-.666-.667h-2.133a.667.667 0 0 0-.667.667v14.126ZM101.54 28.997a.666.666 0 0 1-.666.667h-1.985a.667.667 0 0 1-.666-.667V14.871c0-.368.298-.667.666-.667h1.765c.267 0 .508.159.613.404l3.08 7.188V14.87c0-.368.299-.667.667-.667h1.941c.369 0 .667.299.667.667v14.126a.666.666 0 0 1-.667.667h-1.621a.667.667 0 0 1-.61-.396l-3.184-7.174v6.903Z"/></svg>
