<svg xmlns="http://www.w3.org/2000/svg" width="160" height="40" viewBox="0 0 153.5 40"><defs><clipPath id="clip-path" transform="translate(-3.25)"><path fill="none" d="M0 0h160v40H0z"/></clipPath><style>.cls-4{fill:#fff}</style></defs><g id="Слой_2" data-name="Слой 2"><g id="Шар_2" data-name="Шар 2"><g clip-path="url(#clip-path)"><path fill="#f30c22" d="M7.33 4.92s3.35-2.18 10.17-2.25c7.5-.06 10.71 2.25 10.71 2.25s6 2.37 3.75 12.6C30 26.15 21.07 35.33 21.07 35.33S19.39 37 17.77 37s-3-1.71-3-1.71S5.36 26.7 3.49 16C2.08 7.89 7.33 4.92 7.33 4.92z" transform="translate(-3.25)"/><path d="M23.11 0s-1.61 6.88-6.53 4.25c0 0 5.7 4.51 6.53-4.25z" class="cls-4" transform="translate(-3.25)"/><path d="M20 7.14s-2.06 0-3.7-2.64S8-.61 7 15c-1.12 17.57 4.18 23.51 4.18 23.51A45.45 45.45 0 0 1 7.36 20c0-8.48 1.92-15.35 5.06-16.46s4.19 4.39 7.58 3.6zm6 8.12s1.5 4.6-2.7 6.39c0 0-1.36 2.75 3 5.24a9.88 9.88 0 0 1 4.8 5.25 6.92 6.92 0 0 1-.16 5.15c.48-4.64-1.34-6.75-3.72-8.67s-5.45-3.67-4.6-7.31c-.04-.01 3.8-1.26 3.38-6.05z" class="cls-4" transform="translate(-3.25)"/><path d="M25.42 7.18s-.5 2.1 2.41 2.41 2.56 3.77 1.45 9.8C28.13 25.57 32 31 32 31a12.51 12.51 0 0 1-3.52-8.32c0-5 1.35-9.31.57-11.29S24 10.8 25.42 7.18zM12.51 8.93s-2.9 5.9-.54 14.52c0 0-1.76 5.36-.93 9.33s2.38 5.75 4.31 7.22c-.55-1.2-4.88-3-2-16.36.06 0-3.18-4.58-.84-14.71zM23.09 21.3s-.59-1.71-5.85-1.71c0 0 4.75.57 5.43 2.32zm24.99-9.19h-.42c-.13 0-.19 0-.19.06a4.35 4.35 0 0 0-.85.15h-.15l-.31-.08s-.06 0-.08.13l.15.45a.18.18 0 0 1-.1.18s-.11-.1-.24-.31c-.06 0-.12.23-.18.71v.24l-.1.89v.13l-.09.26a21.26 21.26 0 0 1-.36 2.39l-.27 1.41a7.43 7.43 0 0 1-.54 2.55l-.16-.09q-.44-1.76-.63-3v-.06l-.18-.62c-.05-.42-.1-.63-.13-.63v-.27q-.33-1.74-.65-4.19c0-.3-.24-.45-.71-.45-.11 0-.17 0-.18.08a6 6 0 0 0-1.15.21 7.09 7.09 0 0 0-1.2.16.73.73 0 0 0-.49.76v.09l.13.39a1.45 1.45 0 0 0 .21.74l-.09.18a12 12 0 0 0 .4 1.65 5.25 5.25 0 0 0 .21 1l-.06.13.13.26.21 1a28.13 28.13 0 0 0 .75 3.46c.11.79.2 1.18.27 1.18l.26 1.52v.33l.1.27v.26a4.25 4.25 0 0 0 .29 1.29 4.25 4.25 0 0 1 .21 1.18v.2a1.51 1.51 0 0 1 .06.54q.15.42.42.42h.39c.11 0 .16 0 .16-.08q1-.08 1-.15.89-.12.9-.32c.1-.05.15-.25.15-.61q.13-1 .37-2.27v-.1l.26-1.08.21-1a8.72 8.72 0 0 1 .37-1.57 17.41 17.41 0 0 1 .47-2c.07-.49.13-.74.18-.74q.07-.47.13-.47a2.33 2.33 0 0 1 .24-1.16l.24-.66a2.73 2.73 0 0 1 .18-1 6.22 6.22 0 0 1 .31-1.16 4 4 0 0 1 .47-1.62 2.6 2.6 0 0 1 .18-.65v-.21a.57.57 0 0 0-.5-.3zM55.81 16v-.19c-.05-.48-.11-.73-.17-.73v-.38l-.1-.1a1.17 1.17 0 0 0-.14-.53c-.06-.21-.11-.31-.14-.31a.63.63 0 0 0-.17-.38q-.19-.38-.31-.38a1.41 1.41 0 0 0-.26-.38.22.22 0 0 1-.19-.1 3.27 3.27 0 0 0-.73-.34h-.22l-.11-.1H53a.86.86 0 0 1-.33-.07h-.54a.5.5 0 0 0-.27.14h-.11c-.25.06-.38.1-.38.13h-.08a.83.83 0 0 1-.33.14l-.57.38a.84.84 0 0 1-.27.29v.12h-.08a.59.59 0 0 0-.19.31 2.89 2.89 0 0 0-.36.67c0 .22-.07.33-.11.33v.1c-.06.33-.1.5-.12.5v.19a.87.87 0 0 0-.1.46v.07l-.07.11v1.03c0 .06 0 .1.08.1a1.24 1.24 0 0 0-.12.45v.38l.07.1-.07.27a.93.93 0 0 1 .07.4v.66l-.07.7v1l-.05.16v.47a2.85 2.85 0 0 1 0 .57v.46a1 1 0 0 0 0 .38v.43a1.45 1.45 0 0 0 0 .43v1.57l.08.5a1.51 1.51 0 0 1 .11.41v.1a4.61 4.61 0 0 0 .22.76 3.93 3.93 0 0 1 .3.67q.48.33.48.45l.36.33.81.36a1.65 1.65 0 0 1 .54.11h.43a4 4 0 0 0 .73-.1h.17l.14-.1h.24a1.42 1.42 0 0 1 .38-.26h.1l.4-.29v-.19h.17A1.69 1.69 0 0 0 55 28a.63.63 0 0 0 .16-.33l.17-.35a1.88 1.88 0 0 0 .19-.6v-.14a2.13 2.13 0 0 0 .21-.64v-.21l.07-.48V23.8a.54.54 0 0 0 .07-.24v-.83c0-.06-.05-.09-.08-.09l.08-.33v-3.59l.08-.38v-1.81zm-6.66 3.39l.1-.14v.16zm.19 1.91l-.08.09v-.15c.08 0 .12 0 .12.07zm0-5.8h-.1.1zm.27-1.32zm.69 1.43h.07zm.22-2.69h-.1v-.08c.06 0 .1 0 .1.07zm2.48-.79c.08 0 .12.05.12.08q-.11 0-.11-.07zm-1.79.31v-.07a.16.16 0 0 1 .14.1h-.19zm.13 7.56h-.08v-.07h.08zm0-2.86zm0-1v-.07a.35.35 0 0 0 0 .19zM53.26 27zm.24-10.19V17l.08.08-.08.07v4.46l-.1.36v.18l.08.08v.64a2.71 2.71 0 0 1-.08.65v2.02l-.07.24v.1c-.08.33-.15.5-.24.5a.88.88 0 0 1-.78.29h-.19a1.47 1.47 0 0 1-.51-.46 3.62 3.62 0 0 1-.21-1.05v-.57a.59.59 0 0 0 0-.26v-4.01a2.77 2.77 0 0 0 0-.57v-3.72a.86.86 0 0 1 0-.31 1.44 1.44 0 0 1 .27-.88v-.15h.13c0-.12.21-.23.62-.31s.46.1.46.14.21.14.21.19a1.17 1.17 0 0 1 .27.43v.29a.75.75 0 0 1 .07.29v1.07zm.22 3.49h.09zm0-4.11V16zm.12 2.56v-.08h.08zm.16-6.17v-.07zm.17 2v-.1.1zm1.14-.58v-.1zm.43 4v-.07h.07zm.08-1.15v-.07zm4.64 2.87v.07c0 .07 0 .07.1.09s.08 0 .08 0a.1.1 0 0 0-.07-.1h-.07zm-.73 8.72v-.19l.06-.09v-1.37l.06-.24-.17-.55a.17.17 0 0 0 .06-.12v-.08a.3.3 0 0 0-.06-.16v-2.46a1 1 0 0 1 0-.34v-2.15l-.07-.29v-3.56s-.05-.1-.08-.27a.94.94 0 0 0 0-.27v-.47l.07-.13c0-.09 0-.13-.07-.13v-.46l.07-.07v-.42a.79.79 0 0 1-.07-.28v-1.72q0-.25-.38-.25h-.85a.21.21 0 0 0-.11 0 .7.7 0 0 1-.23 0h-.86l-.17.14-.16.13v2.19l.07.23v1.05l-.06.37v1.05l.06.35a.87.87 0 0 0 0 .27v1.8a1.3 1.3 0 0 0 .06.35v.22a.5.5 0 0 0 0 .18v2.79l-.06.16a.14.14 0 0 1 .06.1v2.46l.08.24-.08.18v.8a.34.34 0 0 1 0 .15v.94a.67.67 0 0 0 .54.31H58a1.85 1.85 0 0 0 .48 0h.51a.27.27 0 0 1 .16 0h.27c.19 0 .29-.11.31-.33l-.08-.26zm-2.57-2.23zm.25-6.75v-.06zm.72 9.48zm0-14.51v-.06zm1 .14h.06zm.11 3.25h-.06zm.24 4.18h.06zm8.36-5.86v-.51l-.1-.52v-.15c0-.14 0-.21-.06-.21a2.18 2.18 0 0 0-.45-1.14 1 1 0 0 0-.51-.34.46.46 0 0 0-.17-.26l.11-.13a2.37 2.37 0 0 0-.88-.52 4.45 4.45 0 0 0-.77-.2h-.69a3.63 3.63 0 0 0-1.1.18 1.34 1.34 0 0 0-.6.25q-1.13.86-1.13 1.18l-.16.23a3.37 3.37 0 0 1-.31.73v.08l-.08.24v.08a.89.89 0 0 0-.12.33v1.08l.11.31a2.52 2.52 0 0 0 .36 1.15 2.07 2.07 0 0 0 .28.68c.09.08.13.14.13.18l.39.78c.19.22.28.36.28.44a8.15 8.15 0 0 1 1 1.57l.18.2q.73 1 1.26 1.87a1.09 1.09 0 0 0 .24.41c0 .2.07.3.13.3v.1l.28.93q-.06.69-.13.69a1.76 1.76 0 0 1-.15.59 1.32 1.32 0 0 1-1 .57 1.25 1.25 0 0 1-.61-.23 2 2 0 0 1-.49-1v-.11l-.08-.41v-1.03c0-.21-.14-.31-.31-.31h-.58c-.09 0-.14 0-.16.08h-.49l-.31.08c-.31 0-.47.16-.47.33v1.59a3.62 3.62 0 0 0 .36 1.48 3 3 0 0 0 .8 1c.16.06.25.13.28.21s.1 0 .1.06a4.52 4.52 0 0 0 1.16.41h.1l.81.08s.12-.07.36-.1l.16.06a3.36 3.36 0 0 0 .73-.26 1.33 1.33 0 0 0 .62-.34q.85-.5.85-.86.39-.36.39-.55v-.08c0-.05 0-.09.1-.12l.31-.86v-.1a1.23 1.23 0 0 0 .08-.45v-.86l-.06-.1-.07-.33-.21-.7-.39-.94a14.36 14.36 0 0 0-1-1.72.72.72 0 0 1-.22-.36 13.08 13.08 0 0 1-1-1.56 2 2 0 0 1-.48-.73 3.67 3.67 0 0 1-.48-.68.94.94 0 0 0-.28-.42q-.09-.44-.16-.44a1.53 1.53 0 0 0-.19-.57c0-.19 0-.29-.09-.29v-.08l-.06-.12a1.45 1.45 0 0 1 .33-1.06q0-.23.83-.37h.08a.87.87 0 0 1 .73.5q.16 0 .26 1.3l-.06.15s.06.12.06.27.1.36.29.36h.51l.21-.06h.2l1-.1h.09a.41.41 0 0 0 .13-.26v-.06zm-5.32-2.25v-.06h.06zm4 10h.06V24l-.06-.06zm-.38-11.1h-.08v-.08l.06.06zm1.16 1.35h-.07.07zm.23 1.86v-.06h.08zm3.79 12.37v-.19l.06-.09v-1.37l.06-.24-.16-.48a.17.17 0 0 0 .06-.12v-.08a.3.3 0 0 0-.06-.16v-2.46a1 1 0 0 1 0-.34v-2.28l-.07-.29v-3.43s-.05-.1-.08-.27a.94.94 0 0 0 0-.27v-.47l.07-.13c0-.09 0-.13-.07-.13v-.46l.07-.07v-.42a.79.79 0 0 1-.07-.28v-1.72c0-.16-.13-.25-.38-.25h-.85a.21.21 0 0 0-.11 0 .7.7 0 0 1-.23 0h-.86l-.17.14-.16.13v2.19l.07.23v1.05l-.06.37v1.05l.06.35a.88.88 0 0 0 0 .27v1.8a1.3 1.3 0 0 0 .06.35v.22a.5.5 0 0 0 0 .18v2.79l-.06.16a.14.14 0 0 1 .06.1v2.46l.08.24-.08.18v.8a.34.34 0 0 1 0 .15v.94a.67.67 0 0 0 .54.31h.47a1.85 1.85 0 0 0 .48 0h.51a.27.27 0 0 1 .16 0h.27q.29 0 .31-.33l-.08-.26zm-2.57-2.23zM69 19.4v-.06zm.72 9.48zm0-14.51v-.06zm1 .14h.06zm.11 3.25h-.06zm.25 4.24h.06zm1-2.33v.07c0 .07 0 .07.11.09s.08 0 .08 0a.1.1 0 0 0-.07-.1H72zm8.22 9.08v-.83l-.08-.18.08-.8v-.1l-.08-.12v-.38a3.33 3.33 0 0 1 0-.66v-.23a2 2 0 0 0 0-.53v-.17a.29.29 0 0 0 .08-.18c0-.22-.07-.33-.1-.33v-.12c0-.22 0-.33-.08-.33v-.25a1.18 1.18 0 0 0-.08-.51 4.39 4.39 0 0 0-.04-1.2 1.21 1.21 0 0 1 .2-.74v-.12a1.51 1.51 0 0 0 .1-.43v-.29c0-.08 0-.13-.08-.15v-.27a7.53 7.53 0 0 0-.12-1v-.92a.48.48 0 0 1-.08-.28v-1.11A5.77 5.77 0 0 1 80 15.5l-.08-.08v-.28l.06-.35.02-.26v-.6a.43.43 0 0 1-.08-.26v-.35a3 3 0 0 0-.1-.68v-.28a.42.42 0 0 0-.12-.26.75.75 0 0 1-.41-.1H79s-.16-.06-.47-.08h-.08l-.08-.06h-.2L78 12l-.68-.06c-.17 0-.25.08-.25.13l.08.31-.08.07.15 1.9v.08a12.07 12.07 0 0 1 .15 1.52l.12 1.49V19a.53.53 0 0 1-.17.4h-.1s-.11-.13-.23-.4a14 14 0 0 0-.5-1.42 7.07 7.07 0 0 0-.35-1.18v-.15c0-.46-.11-.69-.25-.69a2.28 2.28 0 0 0-.26-.58 1.75 1.75 0 0 0-.2-.86 2 2 0 0 0-.2-.53 3.64 3.64 0 0 0-.31-.92v-.08a.54.54 0 0 0-.18-.38c-.06-.22-.12-.32-.2-.32l.08-.1h-.06c-.13 0-.2.05-.2.15l-.37-.08h-.15l-.41-.06-.1.06-.33-.08-.1.08h-.38l-.1.08v.17l-.08.38.11.1v2.29l.08 2.3v4.22l-.08.54v.67l.08 1v4.92h.06v.12l.2.23.21.12h.33c.18 0 .28.07.28.1s.2 0 .2-.08h.59l.08-.08.32-.06a.81.81 0 0 0 .2-.58l.2-.3v-.76l.1-.38v-.4l.1-.43v-.63a5.84 5.84 0 0 1-.12-.86v-.61l.1-1.37v-.28h.08v-.06h-.1v.08c0 .08.27.33.46.83a3.59 3.59 0 0 0 .35.83 2.22 2.22 0 0 0 .31.89 2.38 2.38 0 0 1 .23.69 2.83 2.83 0 0 1 .2.71 5.14 5.14 0 0 0 .32.94 5.08 5.08 0 0 0 .53 1.35c0 .45.09.69.13.71h.17s.05 0 .08.1a7.36 7.36 0 0 1 1-.1h.32l.35.1h.06q.23 0 .32-.31v-.17zM87.94 25v-.1l-.06-.1-.07-.33-.21-.7-.39-.94a14.36 14.36 0 0 0-1-1.72.73.73 0 0 1-.21-.41 13.24 13.24 0 0 1-1-1.56 2.05 2.05 0 0 1-.48-.73 3.66 3.66 0 0 1-.48-.68.94.94 0 0 0-.28-.42c-.06-.29-.12-.44-.16-.44a1.53 1.53 0 0 0-.19-.57c0-.19 0-.29-.09-.29v-.08l-.06-.12a1.45 1.45 0 0 1 .33-1.06c0-.15.28-.28.83-.37h.08a.87.87 0 0 1 .73.5c.11 0 .19.43.26 1.3l-.06.15s.06.12.06.27.1.36.29.36h.51l.21-.06h.2l1-.1h.08a.41.41 0 0 0 .14-.26v-.8l-.11-.52v-.15q0-.21-.06-.21a2.17 2.17 0 0 0-.45-1.14 1 1 0 0 0-.51-.34.46.46 0 0 0-.17-.26l.11-.13a2.37 2.37 0 0 0-.89-.52 4.45 4.45 0 0 0-.77-.2h-.68a3.64 3.64 0 0 0-1.1.18 1.33 1.33 0 0 0-.6.25q-1.13.86-1.13 1.18l-.16.23a3.37 3.37 0 0 1-.31.73v.08L81 15v.08a.91.91 0 0 0-.11.33v1.08l.11.31a2.52 2.52 0 0 0 .39 1.2 2.09 2.09 0 0 0 .28.68c.09.08.14.14.14.18l.39.78c.18.22.28.36.28.44a8.18 8.18 0 0 1 1 1.57l.18.2q.73 1 1.26 1.87a1.08 1.08 0 0 0 .24.41c0 .2.07.3.14.3v.1l.28.93c0 .46-.08.69-.13.69a1.76 1.76 0 0 1-.15.59 1.32 1.32 0 0 1-1 .57 1.25 1.25 0 0 1-.61-.23 2 2 0 0 1-.49-1v-.11l-.11-.44V24.5c0-.21-.14-.31-.31-.31h-.58c-.09 0-.14 0-.16.08h-.49l-.31.08q-.47.07-.47.33v1.59a3.61 3.61 0 0 0 .36 1.48 3 3 0 0 0 .8 1c.16.06.25.13.28.21s.11 0 .11.06a4.52 4.52 0 0 0 1.16.41h.1l.81.08s.12-.07.36-.1l.16.06a3.35 3.35 0 0 0 .73-.26 1.33 1.33 0 0 0 .62-.34c.56-.33.85-.62.85-.86.26-.24.39-.42.39-.55v-.08c0-.05 0-.09.1-.12l.31-.86v-.1a1.19 1.19 0 0 0 .09-.45v-.59zm-.28-9.09l-.06.06v-.06zM87.32 14h.07v.1h-.07zm-1.17-1.33l.06.06h-.08v-.08zm-3.53 1.15v-.06h.06zM86.7 24l-.06-.06h.06z" class="cls-4" transform="translate(-3.25)"/><path fill="#ee1717" d="M95.73 15.93v-.51l-.11-.52v-.15q0-.21-.06-.21a2.17 2.17 0 0 0-.45-1.14 1 1 0 0 0-.51-.34.47.47 0 0 0-.17-.26l.11-.13a2.38 2.38 0 0 0-.89-.53 4.4 4.4 0 0 0-.77-.2h-.68a3.64 3.64 0 0 0-1.1.18 1.33 1.33 0 0 0-.6.25q-1.13.86-1.13 1.19l-.16.23a3.37 3.37 0 0 1-.31.73v.08l-.08.24v.08a.91.91 0 0 0-.11.33v1.07l.11.31a2.52 2.52 0 0 0 .35 1.09 2.07 2.07 0 0 0 .28.68c.09.08.13.14.13.18l.39.78c.18.22.28.36.28.44a8.21 8.21 0 0 1 1 1.57l.18.2q.73 1 1.26 1.87a1.1 1.1 0 0 0 .24.41c0 .2.07.3.14.3v.1l.28.93c0 .46-.08.69-.13.69a1.77 1.77 0 0 1-.15.59 1.32 1.32 0 0 1-1 .57 1.24 1.24 0 0 1-.61-.23 2 2 0 0 1-.49-1v-.11l-.11-.44v-1.03c0-.21-.14-.31-.31-.31h-.58c-.09 0-.14 0-.16.08h-.49l-.31.08c-.31 0-.47.16-.47.33v1.58a3.61 3.61 0 0 0 .46 1.55 3.05 3.05 0 0 0 .8 1c.16.06.25.13.28.21s.11 0 .11.06a4.48 4.48 0 0 0 1.16.41h.1l.81.08s.12-.07.36-.1l.16.06a3.4 3.4 0 0 0 .73-.26 1.34 1.34 0 0 0 .62-.34c.56-.33.85-.62.85-.86.26-.24.39-.42.39-.54v-.08c0-.05 0-.09.1-.12l.31-.86v-.1a1.22 1.22 0 0 0 .08-.45v-.86l-.06-.1-.07-.34-.21-.7-.39-.94a14.36 14.36 0 0 0-1-1.72.73.73 0 0 1-.22-.36 13.24 13.24 0 0 1-1-1.56 2.05 2.05 0 0 1-.48-.73 3.63 3.63 0 0 1-.48-.68.94.94 0 0 0-.28-.42c-.06-.29-.12-.44-.16-.44a1.52 1.52 0 0 0-.19-.57c0-.19 0-.29-.09-.29v-.08l-.06-.12a1.45 1.45 0 0 1 .33-1.06c0-.15.28-.28.83-.37h.08a.87.87 0 0 1 .73.5q.16 0 .26 1.3l-.06.15s.06.12.06.27.1.36.29.36h.51l.21-.06h.2l1-.1h.08a.41.41 0 0 0 .14-.26v-.06zm-5.32-2.25v-.06h.06zm4 10h.06v.06l-.06-.06zM94 12.61h-.08v-.08l.06.06zM95.18 14h-.07.07zm.24 1.85v-.06h.09zm7.78 0v-.19c-.05-.48-.11-.73-.17-.73v-.38l-.09-.1a1.19 1.19 0 0 0-.14-.52c-.06-.21-.11-.31-.14-.31a.63.63 0 0 0-.17-.38q-.26-.43-.38-.43a1.42 1.42 0 0 0-.26-.38.22.22 0 0 1-.19-.1 3.3 3.3 0 0 0-.73-.33h-.22l-.11-.1h-.1a.85.85 0 0 1-.33-.07h-.55a.49.49 0 0 0-.27.14h-.11c-.25.06-.38.1-.38.13h-.07a.81.81 0 0 1-.33.14l-.57.38a.85.85 0 0 1-.27.29v.13h-.08a.59.59 0 0 0-.19.31 2.86 2.86 0 0 0-.36.67c0 .22-.07.33-.11.33v.1c-.06.33-.1.5-.12.5v.19a.85.85 0 0 0-.1.46v.07l-.07.11v1.03c0 .06 0 .1.08.1a1.19 1.19 0 0 0-.12.45v.38l.07.1-.07.27a1 1 0 0 1 .07.4v.66l-.07.7v1l-.08.11v.47a2.85 2.85 0 0 1 0 .57v.46a1.05 1.05 0 0 0 0 .38v.43a1.49 1.49 0 0 0 0 .43v1.57l.08.5a1.51 1.51 0 0 1 .11.41v.1a4.51 4.51 0 0 0 .22.76 3.86 3.86 0 0 1 .31.67c.32.22.47.37.47.45l.36.33.81.36a1.65 1.65 0 0 1 .54.11h.43a3.9 3.9 0 0 0 .73-.1h.17l.14-.1h.24a1.42 1.42 0 0 1 .38-.26h.1l.4-.29v-.19h.17a1.58 1.58 0 0 0 .29-.41.63.63 0 0 0 .16-.33l.17-.35a1.91 1.91 0 0 0 .19-.6v-.14a2.1 2.1 0 0 0 .21-.64v-.21l.07-.48v-1.36a.52.52 0 0 0 .07-.24v-.83c0-.06-.05-.1-.08-.1l.08-.33v-3.59l.08-.38v-1.81zm-6.66 3.39l.1-.14v.16zm.19 1.91l-.08.1v-.15c.08 0 .12 0 .12.07zm0-5.8h-.1.1zM97 14zm.68 1.43h.07zm.22-2.69h-.1v-.08c.06 0 .1 0 .1.07zm2.47-.81c.08 0 .13.05.13.08-.08 0-.11 0-.11-.07zm-1.79.31v-.07a.15.15 0 0 1 .14.1h-.19zm.12 7.55h-.08v-.07h.08zm0-2.87zm0-1v-.07a.36.36 0 0 0 0 .19zm1.92 10.91zm.24-10.19v.19l.08.08-.08.07v4.45l-.1.36v.18l.08.08v.64a2.83 2.83 0 0 1-.08.65v2.02l-.07.24v.1c-.08.33-.16.5-.24.5a.88.88 0 0 1-.78.29h-.19a1.46 1.46 0 0 1-.5-.46 3.65 3.65 0 0 1-.21-1.05v-.57a.6.6 0 0 0 0-.26V20.5a2.77 2.77 0 0 0 0-.57v-3.71a.86.86 0 0 1 0-.31 1.44 1.44 0 0 1 .27-.88v-.15h.12c0-.12.21-.23.62-.31s.46.1.46.14.21.14.21.19a1.17 1.17 0 0 1 .27.43v.29a.77.77 0 0 1 .07.29v1.07zm.22 3.49h.1zm0-4.11v-.19zm.11 2.56v-.08h.08zm.19-6.19h-.07v-.07h.07zm.17 2v-.1.1zm1.11-.62v-.07zm.43 4v-.07h.07zm.08-1.15v-.07zm7.08 10.53a.38.38 0 0 0-.24-.41h-2.46l-.07.08h-.08a.82.82 0 0 1-.46-.25v-3.81s.05-.11.07-.34v-.36a.86.86 0 0 0 0-.32v-2.39a.81.81 0 0 0 0-.32v-1.74l.07-.43V15.3a.63.63 0 0 0 0-.27l.08-.92v-.68l.08-.24v-.59q-.2-.38-.44-.38h-1.62c-.25 0-.38.24-.38.71l.07.24a.78.78 0 0 1-.1.33v1.61V15v.17s0 .11.07.34a7.2 7.2 0 0 0-.07 1v1.29a3.37 3.37 0 0 0-.08.66v4.34l-.07.41v5.35c.08.27.15.41.22.41h1.23l.44.08h1.02l.22-.08h2.36c.13-.08.19-.25.19-.52v-1.17zm-5.63-3.95h.07zm.16-2.49v-.08zm.72 6.25l-.07-.06.07-.07v.07zm.39-6.83v-.08zm.28 2.42h-.07v-.07zm.27-10.31v-.07zm0 10.34v-.08zm1.86 5h-.07v-.07h.07zm0-.41h-.07zm1.26 1.39s-.06.07-.14.07l.09-.09zm.14-.39zm3.7.1v-.19l.06-.09v-1.37l.06-.24-.06-.46a.18.18 0 0 0 .06-.12v-.06a.3.3 0 0 0-.06-.16v-2.45a1 1 0 0 1 0-.34v-2.4l-.07-.29v-3.44s-.05-.1-.09-.27a.88.88 0 0 0 0-.27v-.47l.07-.13c0-.09 0-.13-.07-.13v-.46l.07-.07v-.42a.81.81 0 0 1-.07-.28v-1.72c0-.16-.13-.25-.38-.25h-.85a.2.2 0 0 0-.11 0 .7.7 0 0 1-.23 0h-.86l-.17.14-.16.12v2.19l.07.23v1.05l-.06.37v1.05l.06.35a.83.83 0 0 0 0 .27v2.06a1.16 1.16 0 0 0 .06.35v.22a.47.47 0 0 0 0 .18v2.79l-.06.16a.14.14 0 0 1 .06.1v2.45l.08.24-.08.18v.8a.34.34 0 0 1 0 .15v.94a.67.67 0 0 0 .54.32h.47a1.87 1.87 0 0 0 .47 0h.51a.28.28 0 0 1 .16 0h.31q.28 0 .31-.33l-.08-.26zM110.9 26zm.25-6.74v-.06zm.72 9.48zm0-14.51v-.06zm1 .14h.06zm.11 3.25h-.06zm.25 4.22h.06zm1-2.33v.07c0 .07 0 .07.1.09s.08 0 .08 0 0-.09-.07-.1h-.07zm11.68-16.76l-.08-.08-.08.08.11.15zm-.5-1v-.07h-.15l.08.08zm.8.46h-.08l.08.08zm-4.3 11.06v-.71c0-.13 0-.19.1-.19v-.08l-.11-.23v-.23h-.37v.1l-.07-.07h-.12v-.08h-1.17l-.49.08v-.08h-.21l-.11-.14h-.26a.81.81 0 0 0-.31-.08h-.54a.67.67 0 0 0-.35.19h-.88c-.14 0-.21 0-.21.1a.59.59 0 0 0-.27-.08l-.47.08h-.28a.33.33 0 0 1-.32-.24h-.17c-.05 0-.1.07-.14.22v.26l-.08.11.08.22v1.07c0 .27.06.4.1.4a.36.36 0 0 1-.16.29v.11l.07.08h1.61c.22 0 .33.09.33.28v2.55l-.1.35v.74h.09-.09v9.73c0 .27.14.4.33.4h.1l.49.1h.3l.54.1.26-.07h.1L119 29c.18 0 .27-.28.27-.74v-1.77a2.71 2.71 0 0 1 0-.56.62.62 0 0 1 0-.27v-1.95l-.1-1.52v-1.98a.26.26 0 0 1 .07-.16V18.3l-.08-.95v-2.2l.08-.07v-.52l.11-.11h1.58l.47-.1a.21.21 0 0 0 .24-.24V14a2.18 2.18 0 0 0 .28-.69zm-6.82-1.09h-.07c-.1 0-.14 0-.14-.07l.14-.1v.09zm1.13-.1V12zm14.18 15.36v-.27l-.07-.07h-.08a1.53 1.53 0 0 0-.15-.51v-.22c0 .18.06.27.1.27h.07l-.11-.6c0-.16-.1-.24-.2-.24v-.22c.11 0 .17 0 .17-.09l-.08-.08h-.08v-.18l-.11-1.05a2.75 2.75 0 0 1-.12-.68l-.16-1.13a3 3 0 0 0-.14-.84c0-.48-.1-.72-.15-.72v-.69c0-.18-.08-.27-.12-.27v-.34a7.11 7.11 0 0 0-.19-1.23v-.44l-.07-.27a5.48 5.48 0 0 0-.24-1.22v-.22a2.51 2.51 0 0 1-.12-.73 2.36 2.36 0 0 0-.14-.62v-.22l-.07-.24a3.62 3.62 0 0 0-.29-.67v-.27A.72.72 0 0 0 128 13v-.31l-.14-.17v-.29a.69.69 0 0 0-.49-.31h-.29l-.12-.1h-.21c-.13 0-.19-.06-.19-.1h-.97a.23.23 0 0 0-.12.1c-.09 0-.18.08-.26.24l-.17.73v.5l-.11.33v.24l-.07.08-.15.79v.08a1.77 1.77 0 0 0-.09.5c-.08.67-.16 1.13-.22 1.4v.61l-.11.27v.14l-.17.51v.5l-.09.16v.08l-.1.57v.17l-.08.19-.14.94v.22l-.09.19v.29l-.1.24v.17l-.07.55v.16c0 .15-.08.22-.11.22a6.35 6.35 0 0 1-.14.86c0 .27-.06.41-.1.41a8 8 0 0 1-.17 1.25v.24l-.07.36a5 5 0 0 1-.12.82v.19a2.7 2.7 0 0 0 .26.98v.1l-.07.39a.8.8 0 0 0 .11.43.38.38 0 0 1 .36.19.82.82 0 0 0 .31-.08h.09l.24-.1.1.1h.19l.24-.1.1.07h.08l.1-.07c.12 0 .22-.15.31-.46v-.19a1.83 1.83 0 0 0 .14-.52v-.45l.17-1.4v-.1l.12-.08c0-.2.12-.31.36-.31l.11.11h.34l.19.08.52-.1.33.07h.19a.36.36 0 0 1 .17.27v.36l.06.14.08.57a2.94 2.94 0 0 0 .16.92v.47a2.6 2.6 0 0 0 .17.67 1.64 1.64 0 0 0 .62.17h.6c.27 0 .41-.09.41-.14.18 0 .27 0 .27-.1a3.48 3.48 0 0 1 .19-.87.26.26 0 0 0-.08-.17zm-2.87-4.76c0 .2-.07.31-.21.31h-.14L127 23h-.76c-.18 0-.27-.15-.27-.43 0 0 .08-.06.1-.17v-.07a3.59 3.59 0 0 0 .1-.77v-.12l.17-1.08v-.78l.27-1.92v-.22a2 2 0 0 1 .26-.89v.12l.17 1a4 4 0 0 0 .07 1v.38a9.89 9.89 0 0 0 .22 1.18v.14a.7.7 0 0 0 .07.29v.24l.07.46v.56l.14.67v.08zm1.29 5.72zm.4-1.54h.07zm-7.22.59l-.12.1a.16.16 0 0 0 .1.16s.06-.06.07-.19 0-.08 0-.08zm11.74.67v-.19l.06-.09v-1.37l.06-.24-.06-.46a.17.17 0 0 0 .06-.12v-.06a.29.29 0 0 0-.06-.16v-2.45a1 1 0 0 1 0-.34v-2.25l-.07-.29v-3.44s-.05-.1-.09-.27a.94.94 0 0 0 0-.27v-.47l.07-.13c0-.09 0-.13-.07-.13v-.46l.07-.07v-.42a.82.82 0 0 1-.07-.28v-1.72q0-.25-.38-.25h-.84a.21.21 0 0 0-.12 0 .7.7 0 0 1-.23 0h-.86l-.17.14-.16.12v2.19l.07.23v1.05l-.06.37v1.05l.06.35a.83.83 0 0 0 0 .27v2.06a1.2 1.2 0 0 0 .06.35v.22a.47.47 0 0 0 0 .18v2.79l-.06.16a.13.13 0 0 1 .06.1v2.45l.08.24-.08.18v.8a.34.34 0 0 1 0 .15v.94a.68.68 0 0 0 .54.32h.45a1.9 1.9 0 0 0 .48 0h.51a.28.28 0 0 1 .16 0h.27c.19 0 .29-.11.3-.33l-.07-.26zM131.18 26zm.25-6.74v-.06zm.72 9.48zm0-14.51v-.06zm1 .14h.06zm.11 3.25h-.06zm.25 4.22h.06zm1-2.33v.07c0 .07 0 .07.1.09s.08 0 .08 0 0-.09-.07-.1h-.07zm7.49-3.43v-.26c0-.25-.11-.37-.21-.37v-.32l-.07-.47-.11-.4-.16-.18v-.16c-.1-.12-.18-.18-.24-.18v-.14l-.09-.07h-.18v-.07h.07a.19.19 0 0 0-.18-.11v-.08s-.08-.07-.24-.09v-.08c0-.05 0-.11-.14-.18a2 2 0 0 1-.51-.35.86.86 0 0 1-.42-.14h-.32c0-.07-.11-.12-.32-.16h-.07a.16.16 0 0 0-.16-.09h-.16a.34.34 0 0 0-.26-.1h-.17a.23.23 0 0 0-.18-.1h-.08l-.21.07h-.26v.1l-.33-.14h-.51l-.7.1-.32-.1-.07.1c.08 0 .12 0 .12.07h-.08s-.06 0-.07-.1a.58.58 0 0 0-.32.37v.1l.11.31-.08.1v.23a1.2 1.2 0 0 1-.1.52v.14l-.11.81a1.17 1.17 0 0 0 .13.64v.09l-.09.52.09.33-.09.58v.21l-.08.23v.16a.45.45 0 0 0 .08.24l-.08.1v.07l.11.73a.3.3 0 0 1-.07.19.26.26 0 0 0 .07.16v.16l-.07.59v1.01a.46.46 0 0 1-.09.21.49.49 0 0 0 .08.28 1.47 1.47 0 0 1-.08.47v.96l.09.23a1.27 1.27 0 0 0-.09.38 1 1 0 0 0 .12.49 1.46 1.46 0 0 1-.12.42v.1a1.22 1.22 0 0 1-.14.52l.1.47v1.12a.76.76 0 0 0 .13.26 1.35 1.35 0 0 1-.12.45v.18a.43.43 0 0 0-.12.24v.16a1.21 1.21 0 0 0 .14.59l-.09.1c0 .14 0 .21.07.21 0 .2.19.33.58.38l.12-.08h.12c.21 0 .32 0 .32.08h.61a.45.45 0 0 0 .21-.1h.21q.17 0 .37-1.1v-.1l-.07-.19v-.1a1.07 1.07 0 0 0-.13-.37v-.26l.12-.14v-.74l.07-.45v-.11l-.09-.31.09-.63a.33.33 0 0 1 0-.22v-.19a.5.5 0 0 0-.07-.24v-.68l-.11-.47v-.16a.57.57 0 0 1 .14-.37q0-.11.49-.19c.1 0 .19.09.27.26a.62.62 0 0 1 .12.37 1.81 1.81 0 0 1 .23.52v.37c.06.39.12.58.19.58v.23q.12.59.19.59l.14.49v.1a.51.51 0 0 1 .12.26v.44l.09.4v.21a.7.7 0 0 0 .11.31v.13a1 1 0 0 1 .16.55v.5l.1.26c.28.15.42.26.42.33l.51.21.4-.1h.28l-.09-.14h.16v.1c0 .06 0 .1.07.1h.16c.14 0 .21-.09.21-.16.16-.15.24-.26.24-.33v-.1a.25.25 0 0 1-.08-.16.14.14 0 0 0 .14-.1.46.46 0 0 0-.14-.26v-.21l-.21-.16v-.07c.11 0 .16 0 .16-.08v-.14c-.06-.26-.12-.39-.18-.39a.73.73 0 0 1 .07-.35v-.19c0-.2-.05-.3-.16-.3v-.08c.08 0 .11 0 .11-.07l-.13-.56v-.17l-.16-.31-.16-.44v-.17l-.11-.33v-.44l.07-.1a.42.42 0 0 0-.16-.28h.07v-.07a.76.76 0 0 1-.14-.31v-.37l.08-.09v-.07a1.71 1.71 0 0 0-.18-.75c0-.2-.05-.31-.1-.34l.19-.29v-.14c.25-.12.37-.2.37-.25s-.06-.12-.09-.12L141 20l.12.07c.09 0 .23-.25.42-.75l.16-.33v-.14a1.83 1.83 0 0 0 .26-.73v-.96h-.07v-.35h.07a.31.31 0 0 1-.11-.16.39.39 0 0 0 .16-.26zm-6.87 7.12zm.3-9.38v-.08zm1.57-1.57zM138.74 23l-.07-.08.07-.08zm.8-6.42l-.08.47v.29l-.14.42v.43l-.12.17c-.06.39-.13.58-.23.58l-.26.23q0 .16-.84.29a.78.78 0 0 0-.33-.14c-.12-.14-.21-.21-.26-.21v-.14c0-.06-.07-.11-.18-.16a.15.15 0 0 1 .12-.14c.08 0 .12-.18.14-.53v-.66l-.07-.07.07-.26v-.96a.52.52 0 0 1 .15-.32v-.39l-.08-.07.08-.1v-.71a.35.35 0 0 1 .34-.16h.3a3.69 3.69 0 0 0 .8.28 1.33 1.33 0 0 0 .34.47 1.85 1.85 0 0 1 .16.68.22.22 0 0 1 .14.19h-.07v.45zm.29-4.07h.07zm.22 1v.08zm0 15.19h.07zm1.46-.84c.08 0 .13 0 .14.08s0 0-.12.07-.11-.06-.11-.1zm-.16-1.5h.08v.09-.11zm-.63-2.76v.12-.16zm7.71 3.14h-1.28l-.39.06h-1.19l-.07.07c0-.08 0-.11-.1-.11v-4.9q0-.1-.07-.1c0-.15.05-.23.1-.23h1.8a.71.71 0 0 0 .33-.2v-1.54q0-.3-.73-.5a1 1 0 0 0-.54-.18l-.16.08h-.07v-.29h-.9v-2.83l-.07-.56v-1.25l.65.1h.47l.36-.06.33.06h.79l.11-.06h.13l.16.09a.37.37 0 0 0 .34-.16v-.24l-.06-.15a1 1 0 0 1 .1-.36v-.73s-.05-.06-.07-.18V12c-.05-.12-.12-.18-.22-.18h-.77l-.5.06h-.33l-.22.06h-.26l-.58-.08a1 1 0 0 1-.42.06h-.62l-.21-.06h-.35l-.3.09h-.12l-.09.06-.2-.1h-.18c-.16.1-.24.18-.24.26v1.44l.06.21-.06.26.08.21-.06.13-.06.07v5.95l.1.33a2 2 0 0 0-.1.69v4.6c0 .11 0 .16.08.16l-.08.12v1.23l.06.09h-.06v.91c0 .16.12.24.37.24l.08-.08h.19a1.4 1.4 0 0 0 .44.1v-.09l.13.06h.29l.35-.08.09.06h.13l.13.06h.87c.12 0 .18 0 .18-.09a.42.42 0 0 0 .24.1l.36-.06.31.06.09-.06.1.06h1.16c.06 0 .1 0 .13-.13v-.1l.07-.15v-.4l.06-.08V26.9a.51.51 0 0 0-.27-.13zm-1.83-14.65h.09zm-3.7 4.88h.1v.11h-.07zm0 9l-.06.06v-.09h.16zm.08-7.42h-.13v-.07h.13zm1-6.17h-.09v-.06zm.11-.21zm1 3.49H145v-.11h.09zm2.63 12.8h-.07v-.1zm8.93-3.61v-.1l-.06-.1-.07-.33-.21-.7-.39-.94a14.36 14.36 0 0 0-1-1.72.73.73 0 0 1-.22-.36 13.24 13.24 0 0 1-1-1.56 2.05 2.05 0 0 1-.48-.73 3.63 3.63 0 0 1-.48-.68.94.94 0 0 0-.27-.42c-.06-.29-.12-.44-.16-.44a1.52 1.52 0 0 0-.19-.57c0-.19 0-.29-.09-.29v-.08l-.06-.12a1.45 1.45 0 0 1 .33-1.06c0-.15.27-.28.83-.37h.09a.87.87 0 0 1 .73.5q.16 0 .26 1.3l-.06.15s.06.12.06.27.1.36.29.36h.51l.21-.06h.2l1-.1h.09a.41.41 0 0 0 .13-.26v-.8l-.1-.52v-.15q0-.21-.06-.21a2.17 2.17 0 0 0-.45-1.14.94.94 0 0 0-.51-.34.47.47 0 0 0-.17-.26l.12-.13a2.38 2.38 0 0 0-.88-.53 4.4 4.4 0 0 0-.77-.2h-.68a3.62 3.62 0 0 0-1.1.18 1.33 1.33 0 0 0-.6.25q-1.13.86-1.13 1.18l-.16.23a3.59 3.59 0 0 1-.3.73v.08l-.08.24v.08a.87.87 0 0 0-.11.33v1.07l.11.31a2.52 2.52 0 0 0 .35 1.09 2.07 2.07 0 0 0 .28.68c.09.08.13.14.13.18l.39.78c.19.22.28.36.28.44a8.21 8.21 0 0 1 1 1.57l.18.2q.73 1 1.26 1.87a1.1 1.1 0 0 0 .24.41c0 .2.07.3.13.3v.1l.27.93c0 .46-.08.69-.13.69a1.77 1.77 0 0 1-.15.59 1.32 1.32 0 0 1-1 .57 1.23 1.23 0 0 1-.61-.23 1.94 1.94 0 0 1-.5-1v-.11l-.12-.44v-1.03c0-.21-.14-.31-.3-.31h-.58c-.09 0-.14 0-.16.08h-.49l-.3.08c-.31 0-.47.16-.47.33v1.58a3.62 3.62 0 0 0 .36 1.48 3.05 3.05 0 0 0 .8 1c.16.06.25.13.27.21s.1 0 .1.06a4.48 4.48 0 0 0 1.16.41h.1l.81.08s.12-.07.36-.1l.16.06a3.4 3.4 0 0 0 .73-.26 1.34 1.34 0 0 0 .62-.34c.56-.33.85-.62.85-.86.26-.24.39-.42.39-.54v-.08c0-.05 0-.09.1-.12l.31-.86v-.1a1.22 1.22 0 0 0 .08-.45v-.59zm-.28-9.08l-.06.06v-.06zm-.34-1.87h.07v.1h-.07zm-1.17-1.33l.06.06h-.08v-.08zm-3.53 1.15v-.06h.06zm4.07 10.11l-.06-.06h.06z" transform="translate(-3.25)"/></g></g></g></svg>